<?xml version="1.0" encoding="utf-8"?>
<!-- Generator: Adobe Illustrator 24.1.3, SVG Export Plug-In . SVG Version: 6.00 Build 0)  -->
<svg version="1.1" id="Layer_1" xmlns="http://www.w3.org/2000/svg" xmlns:xlink="http://www.w3.org/1999/xlink" x="0px" y="0px"
	 viewBox="0 0 168 60" style="enable-background:new 0 0 168 60;" xml:space="preserve">
<style type="text/css">
	.st0{fill:#FFFFFF;}
	.st1{fill:#0EBEE9;}
	.st2{fill:#4680C2;}
	.st3{fill:#414142;}
</style>
<path class="st0" d="M4.6,8.7v3.9H3.3V2h4c2.2,0,3.8,1.4,3.8,3.4S9.5,8.7,7.3,8.7L4.6,8.7L4.6,8.7z M4.6,3.1v4.4h2.7
	c1.6,0,2.7-0.9,2.7-2.2c0-1.3-1.1-2.2-2.7-2.2H4.6z"/>
<path class="st0" d="M18.4,1.6C21.6,1.6,24,4,24,7.3s-2.3,5.6-5.6,5.6c-3.3,0-5.6-2.3-5.6-5.6S15.1,1.6,18.4,1.6z M18.4,11.8
	c2.6,0,4.4-1.9,4.4-4.5c0-2.6-1.8-4.5-4.4-4.5c-2.5,0-4.4,1.9-4.4,4.5C14,9.9,15.9,11.8,18.4,11.8z"/>
<path class="st0" d="M31.5,2h1.8l2.3,9.7L38.4,2h1.3l-2.9,10.5h-2l-2.3-9.3l-2.3,9.3h-2L25.2,2h1.3l2.7,9.7L31.5,2z"/>
<path class="st0" d="M48.2,7.6h-5.3v3.8h6v1.1h-7.3V2h7.1v1.1h-5.9v3.4h5.3V7.6z"/>
<path class="st0" d="M52.5,8.4v4.1h-1.2V2h4.6c2.2,0,3.8,1.3,3.8,3.3c0,1.4-1.1,2.6-2.6,3l2.7,4.3h-1.4l-2.5-4.1L52.5,8.4L52.5,8.4z
	 M52.5,3.1v4.2h3.3c1.5,0,2.6-0.9,2.6-2.1c0-1.3-1.1-2.1-2.6-2.1H52.5z"/>
<path class="st0" d="M68.5,7.6h-5.3v3.8h6v1.1H62V2h7.1v1.1h-5.9v3.4h5.3V7.6z"/>
<path class="st0" d="M71.5,12.6V2h3.2c3.6,0,6,2.1,6,5.3c0,3.2-2.4,5.2-6,5.2H71.5z M74.7,3.1h-2v8.3h2c2.9,0,4.8-1.6,4.8-4.2
	C79.4,4.7,77.5,3.1,74.7,3.1z"/>
<path class="st0" d="M87.5,12.6V2h4.4c1.9,0,3.3,1.2,3.3,2.8c0,1.1-0.7,2-1.7,2.3c1.2,0.3,2,1.3,2,2.5c0,1.7-1.5,2.9-3.6,2.9H87.5z
	 M88.7,3.1v3.4h3c1.3,0,2.2-0.7,2.2-1.7S93,3.1,91.7,3.1H88.7z M88.7,7.7v3.8h3c1.4,0,2.5-0.8,2.5-1.9s-1-1.9-2.5-1.9H88.7z"/>
<path class="st0" d="M101,12.6h-1.3V8.6L96,2h1.3l3,5.4l3-5.4h1.4L101,8.6V12.6z"/>
<path class="st0" d="M139,12.4h-0.8V1.9c0-0.3,0.2-0.6,0.6-0.6h0.3V12.4z"/>
<path class="st0" d="M147.1,4.5h0.3c0.3,0,0.6,0.2,0.6,0.6v7.3h-0.8v-1.7c-0.6,1.2-1.8,2-3.3,2c-2.3,0-4-1.8-4-4.3s1.7-4.3,4-4.3
	c1.5,0,2.7,0.8,3.3,2V4.5z M147.1,8.5c0-2-1.4-3.4-3.3-3.4c-1.9,0-3.3,1.5-3.3,3.4c0,2,1.3,3.4,3.3,3.4
	C145.7,11.9,147.1,10.4,147.1,8.5z"/>
<path class="st0" d="M150.2,1.3v4.9c0.6-1.2,1.8-2,3.3-2c2.3,0,4,1.8,4,4.3c0,2.5-1.7,4.3-4,4.3c-1.5,0-2.7-0.8-3.3-2v1.7h-0.8V1.9
	c0-0.3,0.2-0.6,0.6-0.6H150.2z M153.5,5c-1.9,0-3.3,1.5-3.3,3.4c0,2,1.3,3.4,3.3,3.4c1.9,0,3.3-1.4,3.3-3.4
	C156.7,6.5,155.3,5,153.5,5z"/>
<path class="st0" d="M157.9,9.8h0.8c0,1.2,1.1,2.1,2.5,2.1c1.3,0,2.3-0.7,2.3-1.6c0-2.2-5.4-0.8-5.4-3.7c0-1.4,1.3-2.4,2.9-2.4
	c1.9,0,3.2,1.1,3.2,2.6h-0.8c0-1.1-1-1.8-2.3-1.8c-1.2,0-2.1,0.7-2.1,1.5c0,2.1,5.4,0.8,5.4,3.7c0,1.4-1.3,2.5-3.1,2.5
	C159.3,12.7,157.9,11.5,157.9,9.8z"/>
<path class="st0" d="M112.7,12.4h-2.6V2.8c0-0.9,0.7-1.5,1.5-1.5h1.1V12.4z"/>
<path class="st0" d="M131.4,10.5l2.4-8c0.2-0.6,0.8-1.1,1.4-1.1h1.6l-3.5,11h-3.9L126,1.3h1.6c0.7,0,1.2,0.4,1.4,1L131.4,10.5z"/>
<path class="st0" d="M120,0.9c-3.6,0-6,2.4-6,5.9s2.4,5.9,6,5.9c3.5,0,6-2.4,6-5.9C126,3.4,123.5,0.9,120,0.9z M120,10.5
	c-2,0-3.4-1.5-3.4-3.7c0-0.7,0.1-1.3,0.4-1.8c0,0,0,0,0,0c0,0,0,0,0,0c0,0,0,0,0-0.1c0,0,0,0,0,0c0,0,0,0,0-0.1
	c0.3-0.4,0.9-1.2,2.1-1.4h0.1c0.4,0,1.5,0,2,0.8c0,0,0,0,0,0c0,0,0,0.1,0,0.1c0,0,0,0,0,0c0.6,1.3,0,3.3-0.8,4c0,0,2.4-1.4,2.3-3.6
	c0.3,0.6,0.5,1.3,0.5,2C123.5,9,122.1,10.5,120,10.5z"/>
<path class="st0" d="M85.1,59.4V43.1l3.3-0.4l0.5,2.5c1.1-1.8,2.7-2.6,4.8-2.6c0.4,0,0.8,0,1.1,0.1L94.7,46
	c-0.4-0.1-0.8-0.1-1.3-0.1c-1.5,0-2.6,0.4-3.3,1.2c-0.7,0.8-1.1,1.9-1.1,3.2v9H85.1z"/>
<path class="st0" d="M101.2,36.8v3.2h-4v-3L101.2,36.8z"/>
<path class="st0" d="M101.2,42.7h-4v16.7h4V42.7z"/>
<path class="st0" d="M106.3,59.4v-14h-2.7v-2.2l2.7-0.4v-0.9c0-1,0.1-1.9,0.3-2.6c0.2-0.7,0.5-1.3,0.9-1.8c0.4-0.5,1-0.9,1.7-1.1
	c0.7-0.2,1.6-0.4,2.6-0.4c1,0,2,0.1,3.1,0.3l-0.4,3c-0.8-0.1-1.5-0.2-2-0.2c-0.9,0-1.4,0.2-1.8,0.6c-0.4,0.4-0.5,1.1-0.5,2v1.1h3.4
	l0.2,2.7h-3.7v14H106.3z"/>
<g>
	<path class="st1" d="M63.6,19.8L63.6,19.8c2.6,2.3,4,4.6,4.1,6.8c0,2-1.1,4-3.3,5.8V27c0-0.4-0.3-0.8-0.8-0.8L63.6,19.8z"/>
	<path class="st2" d="M63.6,26.3c-0.4,0-0.8,0.3-0.8,0.8v5.4c-2.2-1.9-3.3-3.8-3.3-5.8c0.1-2.2,1.5-4.5,4.1-6.8L63.6,26.3z"/>
	<path class="st2" d="M77.9,39c-0.1-0.2-0.3-0.3-0.5-0.3c-0.2-0.1-0.4,0-0.6,0.1l-0.7,0.4c0.8-2.3,3.1-1.7,4-1.5L77.9,39z"/>
	<path class="st1" d="M80.2,37.7c-0.3,0.9-0.8,3.1-3.3,2.7l0.7-0.4c0.2-0.1,0.3-0.2,0.4-0.5c0.1-0.2,0-0.4-0.1-0.5L80.2,37.7z"/>
	<path class="st3" d="M76.9,40.4l0.7-0.4c0.2-0.1,0.3-0.2,0.4-0.5c0.1-0.4-0.2-0.8-0.5-0.9c-0.2-0.1-0.4,0-0.6,0.1l-0.7,0.4
		c0.8-2.3,3.1-1.7,4-1.5C79.9,38.6,79.3,40.8,76.9,40.4z M71.8,43.7c-0.6,0-1.1-0.5-1.1-1.1c0-0.6,0.5-1.1,1.1-1.1
		c0.6,0,1.1,0.5,1.1,1.1C72.9,43.2,72.4,43.7,71.8,43.7z M72.9,51.9c0,0.6-0.5,1.1-1.1,1.1c-0.6,0-1.1-0.5-1.1-1.1
		c0-0.6,0.5-1.1,1.1-1.1C72.4,50.8,72.9,51.3,72.9,51.9z M66.1,47.7c0-0.2,0.1-0.3,0.1-0.5c0-0.2,0-0.4-0.1-0.5l4-2.3
		c0.3,0.2,0.6,0.4,1,0.6v4.6c-0.3,0.1-0.6,0.3-0.9,0.5L66.1,47.7z M69.3,52.3l-4.1,2.3c-0.3-0.2-0.6-0.4-0.9-0.5v-4.6
		c0.3-0.1,0.7-0.3,0.9-0.5l4.1,2.3c0,0.2-0.1,0.4-0.1,0.6C69.3,52,69.3,52.2,69.3,52.3z M63.6,57.6c-0.6,0-1.1-0.5-1.1-1.1
		c0-0.6,0.5-1.1,1.1-1.1s1.1,0.5,1.1,1.1C64.7,57.1,64.2,57.6,63.6,57.6z M57.8,52.3c0-0.2,0-0.3,0-0.5c0-0.2,0-0.4-0.1-0.6l4.1-2.3
		c0.3,0.2,0.6,0.4,0.9,0.5v4.6c-0.3,0.1-0.7,0.3-0.9,0.5L57.8,52.3z M57,50c-0.3-0.2-0.6-0.4-0.9-0.5v-4.6c0.4-0.1,0.7-0.3,0.9-0.6
		l4,2.3c0,0.2-0.1,0.3-0.1,0.5c0,0.2,0,0.4,0.1,0.5L57,50z M55.4,53c-0.6,0-1.1-0.5-1.1-1.1c0-0.6,0.5-1.1,1.1-1.1
		c0.6,0,1.1,0.5,1.1,1.1C56.5,52.5,56,53,55.4,53z M54.2,42.5c0-0.6,0.5-1.1,1.1-1.1c0.6,0,1.1,0.5,1.1,1.1c0,0.6-0.5,1.1-1.1,1.1
		C54.7,43.7,54.2,43.2,54.2,42.5z M61.9,39.7c0.3,0.2,0.6,0.4,0.9,0.5v4.6c-0.4,0.1-0.7,0.3-0.9,0.5l-4-2.3c0-0.2,0-0.3,0-0.5
		c0-0.2,0-0.4-0.1-0.6L61.9,39.7z M63.6,36.7c0.6,0,1.1,0.5,1.1,1.1c0,0.6-0.5,1.1-1.1,1.1s-1.1-0.5-1.1-1.1
		C62.5,37.2,63,36.7,63.6,36.7z M59.5,26.6c0.1-2.2,1.5-4.5,4.1-6.8h0c2.6,2.3,4,4.6,4.1,6.8c0,2-1.1,4-3.3,5.8V27
		c0-0.4-0.3-0.8-0.8-0.8c-0.4,0-0.8,0.3-0.8,0.8v5.4C60.6,30.5,59.5,28.6,59.5,26.6z M64.7,47.1c0,0.6-0.5,1.1-1.1,1.1
		s-1.1-0.5-1.1-1.1c0-0.6,0.5-1.1,1.1-1.1S64.7,46.5,64.7,47.1z M69.3,42c0,0.2-0.1,0.4-0.1,0.6c0,0.2,0,0.3,0,0.5l-4,2.3
		c-0.3-0.2-0.6-0.4-0.9-0.5v-4.6c0.3-0.1,0.6-0.3,0.9-0.5L69.3,42z M81.3,36.5c0,0-2.8-1.1-4.7,0c-1.1,0.6-1.9,1.8-2.1,3.7l-0.9,0.5
		c-0.4-0.4-1-0.6-1.7-0.6c-0.6,0-1.2,0.2-1.7,0.6h0L66,38.4c0-0.2,0.1-0.4,0.1-0.6c0-1.1-0.7-2-1.8-2.4v-1.1l0.4-0.3h0
		c3.1-2.4,4.6-4.9,4.5-7.6c0-2.7-1.7-5.5-5.1-8.4C64,18.1,63.8,18,63.7,18h-0.1c-0.2,0-0.3,0.1-0.4,0.2c-3.4,2.9-5.1,5.7-5.1,8.4
		c-0.1,2.6,1.4,5.2,4.5,7.6l0.4,0.3v1.1c-1,0.3-1.8,1.3-1.8,2.4c0,0.2,0,0.4,0.1,0.6L57,40.7c-0.4-0.4-1-0.6-1.7-0.6
		c-1.4,0-2.5,1.1-2.5,2.5c0,1.1,0.7,2,1.8,2.4v4.6c-1,0.3-1.8,1.3-1.8,2.4c0,1.4,1.1,2.5,2.5,2.5c0.7,0,1.3-0.3,1.7-0.7l4,2.3
		c0,0.2-0.1,0.4-0.1,0.5c0,1.4,1.1,2.5,2.5,2.5c1.4,0,2.5-1.1,2.5-2.5c0-0.2,0-0.4-0.1-0.5l4-2.3c0.5,0.4,1.1,0.7,1.7,0.7
		c1.4,0,2.5-1.1,2.5-2.5c0-1.1-0.7-2-1.8-2.4v-4.6c1-0.3,1.8-1.3,1.8-2.4c0-0.2,0-0.4-0.1-0.6l0.9-0.5c1.9,0.8,3.4,0.7,4.4,0
		c1.8-1.1,2.3-4.1,2.3-4.1C81.9,37,81.6,36.5,81.3,36.5z"/>
</g>
</svg>
