<?xml version="1.0" encoding="utf-8"?>
<!-- Generator: Adobe Illustrator 25.3.1, SVG Export Plug-In . SVG Version: 6.00 Build 0)  -->
<svg version="1.1" id="Layer_1" xmlns="http://www.w3.org/2000/svg" xmlns:xlink="http://www.w3.org/1999/xlink" x="0px" y="0px"
	 viewBox="0 0 58 35" style="enable-background:new 0 0 58 35;" xml:space="preserve">
<style type="text/css">
	.st0{fill:#989898;}
	.st1{fill:#1FBEE7;}
	.st2{fill:#4680C2;}
	.st3{fill:#434344;}
</style>
<path class="st0" d="M26.9,34.8V21.4l2.7-0.3l0.4,2.1c0.9-1.5,2.2-2.1,3.9-2.1c0.3,0,0.7,0,0.9,0.1l-0.1,2.8
	c-0.3-0.1-0.7-0.1-1.1-0.1c-1.2,0-2.1,0.3-2.7,1c-0.6,0.7-0.9,1.6-0.9,2.6v7.4C30.1,34.8,26.9,34.8,26.9,34.8z"/>
<path class="st0" d="M40.1,16.3v2.6h-3.3v-2.5L40.1,16.3z"/>
<path class="st0" d="M40.1,21.1h-3.3v13.7h3.3V21.1z"/>
<path class="st0" d="M44.3,34.8V23.3h-2.2v-1.8l2.2-0.3v-0.8c0-0.8,0.1-1.6,0.2-2.1s0.4-1.1,0.7-1.5c0.3-0.4,0.8-0.7,1.4-0.9
	c0.6-0.2,1.3-0.3,2.1-0.3s1.6,0.1,2.5,0.2l-0.3,2.5c-0.7-0.1-1.2-0.2-1.6-0.2c-0.7,0-1.1,0.2-1.5,0.5c-0.3,0.3-0.4,0.9-0.4,1.6v1
	h2.9l0.2,2.2h-3v11.5L44.3,34.8L44.3,34.8z"/>
<g>
	<path class="st1" d="M9.3,2.3L9.3,2.3c2.1,1.9,3.3,3.8,3.4,5.6c0,1.6-0.9,3.3-2.7,4.8V8.3c0-0.3-0.2-0.7-0.7-0.7V2.3z"/>
	<path class="st2" d="M9.3,7.6c-0.3,0-0.7,0.2-0.7,0.7v4.4c-1.8-1.6-2.7-3.1-2.7-4.8C6,6.1,7.1,4.2,9.3,2.3V7.6z"/>
	<path class="st2" d="M21,18.1c-0.1-0.2-0.2-0.2-0.4-0.2c-0.2-0.1-0.3,0-0.5,0.1l-0.6,0.3c0.7-1.9,2.5-1.4,3.3-1.2L21,18.1z"/>
	<path class="st1" d="M22.9,17c-0.2,0.7-0.7,2.5-2.7,2.2l0.6-0.3c0.2-0.1,0.2-0.2,0.3-0.4c0.1-0.2,0-0.3-0.1-0.4L22.9,17z"/>
	<path class="st3" d="M20.2,19.3l0.6-0.3c0.2-0.1,0.2-0.2,0.3-0.4c0.1-0.3-0.2-0.7-0.4-0.7c-0.2-0.1-0.3,0-0.5,0.1l-0.6,0.3
		c0.7-1.9,2.5-1.4,3.3-1.2C22.7,17.8,22.2,19.6,20.2,19.3z M16,21.9c-0.5,0-0.9-0.4-0.9-0.9c0-0.5,0.4-0.9,0.9-0.9s0.9,0.4,0.9,0.9
		C17,21.5,16.6,21.9,16,21.9z M17,28.6c0,0.5-0.4,0.9-0.9,0.9c-0.5,0-0.9-0.4-0.9-0.9c0-0.5,0.4-0.9,0.9-0.9
		C16.5,27.7,17,28.1,17,28.6z M11.3,25.2c0-0.2,0.1-0.2,0.1-0.4s0-0.3-0.1-0.4l3.3-1.9c0.2,0.2,0.5,0.3,0.8,0.5v3.8
		c-0.2,0.1-0.5,0.2-0.7,0.4L11.3,25.2z M13.9,29l-3.4,1.9c-0.2-0.2-0.5-0.3-0.7-0.4v-3.8c0.2-0.1,0.6-0.2,0.7-0.4l3.4,1.9
		c0,0.2-0.1,0.3-0.1,0.5C13.9,28.8,13.9,28.9,13.9,29z M9.3,33.4c-0.5,0-0.9-0.4-0.9-0.9s0.4-0.9,0.9-0.9c0.5,0,0.9,0.4,0.9,0.9
		S9.8,33.4,9.3,33.4z M4.6,29c0-0.2,0-0.2,0-0.4s0-0.3-0.1-0.5l3.4-1.9c0.2,0.2,0.5,0.3,0.7,0.4v3.8c-0.2,0.1-0.6,0.2-0.7,0.4
		L4.6,29z M3.8,27.1c-0.2-0.2-0.5-0.3-0.7-0.4V23c0.3-0.1,0.6-0.2,0.7-0.5l3.3,1.9c0,0.2-0.1,0.2-0.1,0.4s0,0.3,0.1,0.4L3.8,27.1z
		 M2.5,29.6c-0.5,0-0.9-0.4-0.9-0.9c0-0.5,0.4-0.9,0.9-0.9s0.9,0.4,0.9,0.9C3.4,29.2,3,29.6,2.5,29.6z M1.6,21
		c0-0.5,0.4-0.9,0.9-0.9s0.9,0.4,0.9,0.9c0,0.5-0.4,0.9-0.9,0.9S1.6,21.5,1.6,21z M7.9,18.6c0.2,0.2,0.5,0.3,0.7,0.4v3.8
		C8.3,22.9,8,23,7.9,23.2l-3.3-1.9c0-0.2,0-0.2,0-0.4s0-0.3-0.1-0.5L7.9,18.6z M9.3,16.2c0.5,0,0.9,0.4,0.9,0.9
		c0,0.5-0.4,0.9-0.9,0.9c-0.5,0-0.9-0.4-0.9-0.9C8.4,16.6,8.8,16.2,9.3,16.2z M5.9,7.8C6,6,7.1,4.1,9.3,2.3l0,0
		c2.1,1.9,3.3,3.8,3.4,5.6c0,1.6-0.9,3.3-2.7,4.8V8.3c0-0.3-0.2-0.7-0.7-0.7c-0.3,0-0.7,0.2-0.7,0.7v4.4C6.8,11.1,5.9,9.6,5.9,7.8z
		 M10.2,24.8c0,0.5-0.4,0.9-0.9,0.9c-0.5,0-0.9-0.4-0.9-0.9s0.4-0.9,0.9-0.9C9.8,23.9,10.2,24.3,10.2,24.8z M14,20.6
		c0,0.2-0.1,0.3-0.1,0.5c0,0.2,0,0.2,0,0.4l-3.3,1.9c-0.2-0.2-0.5-0.3-0.7-0.4v-3.8c0.2-0.1,0.5-0.2,0.7-0.4L14,20.6z M23.8,16
		c0,0-2.3-0.9-3.9,0c-0.9,0.5-1.6,1.5-1.7,3l-0.8,0.5C17.1,19.2,16.6,19,16,19c-0.5,0-1,0.2-1.4,0.5l0,0l-3.4-1.9
		c0-0.2,0.1-0.3,0.1-0.5c0-0.9-0.6-1.6-1.5-2v-0.9l0.3-0.2l0,0c2.5-2,3.8-4,3.7-6.2c0-2.2-1.4-4.5-4.2-6.9C9.6,0.8,9.4,0.7,9.4,0.7
		H9.3C9.1,0.7,9,0.8,8.9,0.9c-2.9,2.5-4.3,4.8-4.3,7c-0.1,2.1,1.1,4.3,3.7,6.2l0.3,0.2v0.9c-0.8,0.2-1.5,1.1-1.5,2
		c0,0.2,0,0.3,0.1,0.5l-3.4,1.8C3.6,19.2,3.1,19,2.5,19c-1.1,0-2.1,0.9-2.1,2.1c0,0.9,0.6,1.6,1.5,2v3.8c-0.8,0.2-1.5,1.1-1.5,2
		c0,1.1,0.9,2.1,2.1,2.1c0.6,0,1.1-0.2,1.4-0.6l3.3,1.9c0,0.2-0.1,0.3-0.1,0.4c0,1.1,0.9,2.1,2.1,2.1s2.1-0.9,2.1-2.1
		c0-0.2,0-0.3-0.1-0.4l3.3-1.9c0.4,0.3,0.9,0.6,1.4,0.6c1.1,0,2.1-0.9,2.1-2.1c0-0.9-0.6-1.6-1.5-2V23c0.8-0.2,1.5-1.1,1.5-2
		c0-0.2,0-0.3-0.1-0.5l0.7-0.4c1.6,0.7,2.8,0.6,3.6,0c1.5-0.9,1.9-3.4,1.9-3.4C24.3,16.5,24,16.1,23.8,16z"/>
</g>
</svg>
