<?xml version="1.0" encoding="utf-8"?>
<!-- Generator: Adobe Illustrator 25.2.3, SVG Export Plug-In . SVG Version: 6.00 Build 0)  -->
<svg version="1.1" id="Layer_1" xmlns="http://www.w3.org/2000/svg" xmlns:xlink="http://www.w3.org/1999/xlink" x="0px" y="0px"
	 viewBox="0 0 24 24" style="enable-background:new 0 0 24 24;" xml:space="preserve">
<style type="text/css">
	.st0{fill:#b2b5b2;}
</style>
<path class="st0" d="M1.9,7.9h16.6l-2,1.5c-0.6,0.4-0.7,1.2-0.3,1.8c0.2,0.3,0.6,0.5,1,0.5c0.3,0,0.5-0.1,0.8-0.3l5.1-3.8
	c0.6-0.4,0.7-1.2,0.2-1.8c-0.1-0.1-0.2-0.2-0.2-0.2l-4.9-3.8c-0.6-0.4-1.4-0.3-1.8,0.2s-0.3,1.4,0.2,1.8l0,0l2,1.5H1.9
	c-0.7,0-1.3,0.6-1.3,1.3S1.2,7.9,1.9,7.9z"/>
<path class="st0" d="M22.4,16.8H5.7l2-1.5c0.6-0.4,0.7-1.2,0.3-1.8c-0.4-0.6-1.2-0.7-1.8-0.3l-5.1,3.8c-0.6,0.4-0.7,1.2-0.2,1.8
	C1,19,1.1,19.1,1.1,19.1L6.1,23c0.2,0.2,0.5,0.3,0.8,0.3c0.4,0,0.8-0.2,1-0.5c0.4-0.6,0.3-1.4-0.2-1.8l-2-1.5h16.7
	c0.7,0,1.3-0.6,1.3-1.3S23.1,16.8,22.4,16.8z"/>
</svg>
