<?xml version="1.0" encoding="utf-8"?> 
<!-- Generator: Adobe Illustrator 24.1.3, SVG Export Plug-In . SVG Version: 6.00 Build 0)  --> 
<svg version="1.1" id="Layer_1" xmlns="http://www.w3.org/2000/svg" xmlns:xlink="http://www.w3.org/1999/xlink" x="0px" y="0px" 
	 viewBox="0 0 137 172" style="enable-background:new 0 0 137 172;" xml:space="preserve" height="16"> 
<style type="text/css"> 
	.st0{fill:#b2b5b2;} 
</style> 
<g> 
	<path class="st0" d="M8.7,26.1c-3,0-5.6,0-8.5,0c0-5.9,0-11.4,0-17.2c1.2,0,2.3,0,3.3,0c12.3,0,24.5,0.1,36.8-0.1 
		c1.5,0,3.5-0.7,4.3-1.8c4.2-5.7,9.6-7.3,16.6-6.8c7.3,0.6,14.8,0,22.1,0.2c1.4,0,3.4,0.6,4.1,1.6c4.3,5.9,9.9,7.4,17.1,7 
		c9.7-0.6,19.5-0.2,29.3-0.2c1.1,0,2.1,0,3.3,0c0,5.8,0,11.2,0,17.1c-2.8,0-5.5,0-8.5,0c0,1.7,0,3,0,4.3c0,40.7,0,81.4,0,122.1 
		c0,2.1,0,4.2-0.4,6.3c-1.6,7.7-7.7,12.8-15.6,13.2c-0.9,0-1.8,0.1-2.7,0.1c-27.5,0-55,0-82.6,0c-12.1,0-18.7-6.5-18.7-18.6 
		c0-41,0-82,0-123C8.7,29,8.7,27.7,8.7,26.1z M26,154.6c28.7,0,57,0,85.5,0c0-42.9,0-85.5,0-128.3c-28.6,0-56.9,0-85.5,0 
		C26,69.1,26,111.8,26,154.6z"/> 
	<path class="st0" d="M43.2,43.3c5.6,0,11.1,0,16.8,0c0,31.4,0,62.6,0,94.1c-5.5,0-11,0-16.8,0C43.2,106.2,43.2,74.9,43.2,43.3z"/> 
	<path class="st0" d="M94.3,137.5c-5.7,0-11.1,0-16.8,0c0-31.4,0-62.6,0-94.1c5.6,0,11.1,0,16.8,0C94.3,74.7,94.3,106,94.3,137.5z" 
		/> 
</g> 
</svg>
