<?xml version="1.0" encoding="utf-8"?>
<!-- Generator: Adobe Illustrator 25.2.3, SVG Export Plug-In . SVG Version: 6.00 Build 0)  -->
<svg version="1.1" id="Layer_1" xmlns="http://www.w3.org/2000/svg" xmlns:xlink="http://www.w3.org/1999/xlink" x="0px" y="0px"
	 viewBox="0 0 108 58" style="enable-background:new 0 0 108 58;" xml:space="preserve">
<style type="text/css">
	.st0{fill:#FFFFFF;}
	.st1{fill:#19BEE8;}
	.st2{fill:#4680C2;}
	.st3{fill:#424243;}
</style>
<path class="st0" d="M32.9,50V33.7l3.3-0.4l0.5,2.5c1.1-1.8,2.7-2.6,4.8-2.6c0.4,0,0.8,0,1.1,0.1l-0.1,3.4c-0.4-0.1-0.8-0.1-1.3-0.1
	c-1.5,0-2.6,0.4-3.3,1.2c-0.7,0.8-1.1,1.9-1.1,3.2v9H32.9z"/>
<path class="st0" d="M49,27.5v3.2h-4v-3L49,27.5z"/>
<path class="st0" d="M49,33.4h-4v16.7h4V33.4z"/>
<path class="st0" d="M54.1,50V36h-2.7v-2.2l2.7-0.4v-1c0-1,0.1-1.9,0.3-2.6s0.5-1.3,0.9-1.8s1-0.9,1.7-1.1s1.6-0.4,2.6-0.4
	s2,0.1,3.1,0.3l-0.4,3c-0.8-0.1-1.5-0.2-2-0.2c-0.9,0-1.4,0.2-1.8,0.6c-0.4,0.4-0.5,1.1-0.5,2v1.2h3.5l0.2,2.7H58v14h-3.9V50z"/>
<g>
	<path class="st1" d="M11.4,10.5L11.4,10.5c2.6,2.3,4,4.6,4.1,6.8c0,2-1.1,4-3.3,5.8v-5.4c0-0.4-0.3-0.8-0.8-0.8V10.5z"/>
	<path class="st2" d="M11.4,16.9c-0.4,0-0.8,0.3-0.8,0.8v5.4c-2.2-1.9-3.3-3.8-3.3-5.8c0.1-2.2,1.5-4.5,4.1-6.8V16.9z"/>
	<path class="st2" d="M25.7,29.7c-0.1-0.2-0.3-0.3-0.5-0.3c-0.2-0.1-0.4,0-0.6,0.1l-0.7,0.4c0.8-2.3,3.1-1.7,4-1.5L25.7,29.7z"/>
	<path class="st1" d="M28,28.4c-0.3,0.9-0.8,3.1-3.3,2.7l0.7-0.4c0.2-0.1,0.3-0.2,0.4-0.5c0.1-0.2,0-0.4-0.1-0.5L28,28.4z"/>
	<path class="st3" d="M24.7,31.1l0.7-0.4c0.2-0.1,0.3-0.2,0.4-0.5c0.1-0.4-0.2-0.8-0.5-0.9c-0.2-0.1-0.4,0-0.6,0.1L24,29.8
		c0.8-2.3,3.1-1.7,4-1.5C27.7,29.3,27.2,31.5,24.7,31.1z M19.6,34.3c-0.6,0-1.1-0.5-1.1-1.1c0-0.6,0.5-1.1,1.1-1.1s1.1,0.5,1.1,1.1
		C20.8,33.8,20.3,34.3,19.6,34.3z M20.8,42.5c0,0.6-0.5,1.1-1.1,1.1s-1.1-0.5-1.1-1.1s0.5-1.1,1.1-1.1
		C20.2,41.4,20.8,41.9,20.8,42.5z M13.9,38.4c0-0.2,0.1-0.3,0.1-0.5s0-0.4-0.1-0.5l4-2.3c0.3,0.2,0.6,0.4,1,0.6v4.6
		c-0.3,0.1-0.6,0.3-0.9,0.5L13.9,38.4z M17.1,43L13,45.3c-0.3-0.2-0.6-0.4-0.9-0.5v-4.6c0.3-0.1,0.7-0.3,0.9-0.5l4.1,2.3
		c0,0.2-0.1,0.4-0.1,0.6C17.1,42.7,17.1,42.9,17.1,43z M11.4,48.3c-0.6,0-1.1-0.5-1.1-1.1s0.5-1.1,1.1-1.1s1.1,0.5,1.1,1.1
		S12,48.3,11.4,48.3z M5.7,43c0-0.2,0-0.3,0-0.5s0-0.4-0.1-0.6l4.1-2.3c0.3,0.2,0.6,0.4,0.9,0.5v4.6c-0.3,0.1-0.7,0.3-0.9,0.5
		L5.7,43z M4.8,40.7c-0.3-0.2-0.6-0.4-0.9-0.5v-4.6c0.4-0.1,0.7-0.3,0.9-0.6l4,2.3c0,0.2-0.1,0.3-0.1,0.5s0,0.4,0.1,0.5L4.8,40.7z
		 M3.2,43.7c-0.6,0-1.1-0.5-1.1-1.1s0.5-1.1,1.1-1.1s1.1,0.5,1.1,1.1C4.3,43.2,3.8,43.7,3.2,43.7z M2.1,33.2c0-0.6,0.5-1.1,1.1-1.1
		s1.1,0.5,1.1,1.1c0,0.6-0.5,1.1-1.1,1.1S2.1,33.8,2.1,33.2z M9.7,30.3c0.3,0.2,0.6,0.4,0.9,0.5v4.6c-0.4,0.1-0.7,0.3-0.9,0.5
		l-4-2.3c0-0.2,0-0.3,0-0.5s0-0.4-0.1-0.6L9.7,30.3z M11.4,27.4c0.6,0,1.1,0.5,1.1,1.1s-0.5,1.1-1.1,1.1s-1.1-0.5-1.1-1.1
		C10.3,27.9,10.8,27.4,11.4,27.4z M7.3,17.2c0.1-2.2,1.5-4.5,4.1-6.8l0,0c2.6,2.3,4,4.6,4.1,6.8c0,2-1.1,4-3.3,5.8v-5.3
		c0-0.4-0.3-0.8-0.8-0.8c-0.4,0-0.8,0.3-0.8,0.8v5.4C8.4,21.2,7.3,19.3,7.3,17.2z M12.5,37.8c0,0.6-0.5,1.1-1.1,1.1
		s-1.1-0.5-1.1-1.1c0-0.6,0.5-1.1,1.1-1.1S12.5,37.2,12.5,37.8z M17.2,32.7c0,0.2-0.1,0.4-0.1,0.6s0,0.3,0,0.5l-4,2.3
		c-0.3-0.2-0.6-0.4-0.9-0.5V31c0.3-0.1,0.6-0.3,0.9-0.5L17.2,32.7z M29.1,27.1c0,0-2.8-1.1-4.7,0c-1.1,0.6-1.9,1.8-2.1,3.7l-1,0.6
		c-0.4-0.4-1-0.6-1.7-0.6c-0.6,0-1.2,0.2-1.7,0.6l0,0l-4.1-2.3c0-0.2,0.1-0.4,0.1-0.6c0-1.1-0.7-2-1.8-2.4V25l0.4-0.3l0,0
		c3.1-2.4,4.6-4.9,4.5-7.6c0-2.7-1.7-5.5-5.1-8.4c-0.1-0.1-0.3-0.2-0.4-0.2h-0.1c-0.2,0-0.3,0.1-0.4,0.2c-3.5,3-5.2,5.8-5.2,8.5
		c-0.1,2.6,1.4,5.2,4.5,7.6l0.4,0.3v1.1c-1,0.3-1.8,1.3-1.8,2.4c0,0.2,0,0.4,0.1,0.6l-4.1,2.2c-0.4-0.4-1-0.6-1.7-0.6
		c-1.4,0-2.5,1.1-2.5,2.5c0,1.1,0.7,2,1.8,2.4v4.6c-1,0.3-1.8,1.3-1.8,2.4c0,1.4,1.1,2.5,2.5,2.5c0.7,0,1.3-0.3,1.7-0.7l4,2.3
		c0,0.2-0.1,0.4-0.1,0.5c0,1.4,1.1,2.5,2.5,2.5s2.5-1.1,2.5-2.5c0-0.2,0-0.4-0.1-0.5l4-2.3c0.5,0.4,1.1,0.7,1.7,0.7
		c1.4,0,2.5-1.1,2.5-2.5c0-1.1-0.7-2-1.8-2.4v-4.6c1-0.3,1.8-1.3,1.8-2.4c0-0.2,0-0.4-0.1-0.6l0.9-0.5c1.9,0.8,3.4,0.7,4.4,0
		c1.8-1.1,2.3-4.1,2.3-4.1C29.7,27.7,29.4,27.2,29.1,27.1z"/>
</g>
<g>
	<path class="st0" d="M77,46.2c0-0.6-0.2-1.1-0.6-1.4c-0.4-0.3-1.2-0.7-2.3-1c-1.1-0.3-2-0.7-2.7-1.1c-1.3-0.8-1.9-1.8-1.9-3.1
		c0-1.1,0.5-2.1,1.4-2.8c0.9-0.7,2.1-1.1,3.6-1.1c1,0,1.8,0.2,2.6,0.5c0.8,0.4,1.4,0.9,1.8,1.5c0.4,0.7,0.7,1.4,0.7,2.2H77
		c0-0.7-0.2-1.3-0.7-1.7c-0.5-0.4-1.1-0.6-2-0.6c-0.8,0-1.4,0.2-1.9,0.5s-0.7,0.8-0.7,1.4c0,0.5,0.2,0.9,0.7,1.3s1.3,0.7,2.3,1
		c1.1,0.3,2,0.7,2.6,1.1c0.7,0.4,1.1,0.9,1.5,1.4s0.5,1.2,0.5,1.9c0,1.2-0.4,2.1-1.3,2.8c-0.9,0.7-2.1,1-3.6,1c-1,0-1.9-0.2-2.8-0.6
		s-1.5-0.9-2-1.6c-0.5-0.7-0.7-1.4-0.7-2.3h2.4c0,0.8,0.3,1.4,0.8,1.8s1.3,0.7,2.3,0.7c0.8,0,1.5-0.2,1.9-0.5S77,46.7,77,46.2z"/>
	<path class="st0" d="M87.6,49.8c-0.1-0.2-0.2-0.5-0.3-1c-0.7,0.8-1.7,1.2-2.7,1.2c-1,0-1.9-0.3-2.6-0.9c-0.7-0.6-1-1.3-1-2.2
		c0-1.1,0.4-2,1.2-2.6c0.8-0.6,2-0.9,3.5-0.9h1.4v-0.7c0-0.5-0.2-1-0.5-1.3c-0.3-0.3-0.8-0.5-1.4-0.5c-0.5,0-1,0.1-1.3,0.4
		c-0.3,0.3-0.5,0.6-0.5,1h-2.3c0-0.6,0.2-1.1,0.6-1.6c0.4-0.5,0.9-0.9,1.5-1.2c0.7-0.3,1.4-0.4,2.2-0.4c1.2,0,2.2,0.3,2.9,0.9
		c0.7,0.6,1.1,1.5,1.1,2.6v4.7c0,0.9,0.1,1.7,0.4,2.2v0.2H87.6z M85,48.1c0.5,0,0.9-0.1,1.3-0.3c0.4-0.2,0.7-0.5,0.9-0.9v-2H86
		c-0.9,0-1.5,0.2-2,0.5c-0.4,0.3-0.7,0.7-0.7,1.3c0,0.4,0.1,0.8,0.4,1.1S84.5,48.1,85,48.1z"/>
	<path class="st0" d="M92.8,49.8v-8.7h-1.6v-1.7h1.6v-1c0-1.2,0.3-2,1-2.7c0.6-0.6,1.5-0.9,2.7-0.9c0.4,0,0.8,0.1,1.3,0.2l-0.1,1.8
		c-0.3-0.1-0.6-0.1-0.9-0.1c-1.1,0-1.7,0.6-1.7,1.7v0.9h2.1v1.7h-2.1v8.7H92.8z"/>
	<path class="st0" d="M103.6,50c-1.5,0-2.7-0.5-3.6-1.4c-0.9-0.9-1.4-2.2-1.4-3.7v-0.3c0-1,0.2-2,0.6-2.8c0.4-0.8,1-1.5,1.7-1.9
		c0.7-0.5,1.5-0.7,2.4-0.7c1.4,0,2.5,0.5,3.3,1.4c0.8,0.9,1.2,2.2,1.2,3.8v0.9h-6.8c0.1,0.9,0.4,1.5,0.9,2c0.5,0.5,1.1,0.8,1.9,0.8
		c1.1,0,1.9-0.4,2.6-1.3l1.3,1.2c-0.4,0.6-1,1.1-1.7,1.4S104.4,50,103.6,50z M103.3,41c-0.6,0-1.2,0.2-1.6,0.7s-0.6,1.1-0.8,1.9h4.5
		v-0.2c-0.1-0.8-0.3-1.4-0.6-1.8S103.9,41,103.3,41z"/>
</g>
</svg>
